<svg width="360" height="139" viewBox="0 0 370 137" fill="none" xmlns="http://www.w3.org/2000/svg">
<path d="M119.081 6.63608C88.7508 -8.55557 57.327 5.15981 37.8534 19.5276C29.0498 26.023 17.1147 29.2187 9.57646 37.1478C-13.4757 61.3953 8.63064 145.629 38.396 131.961C66.1586 119.213 117.924 126.65 140.337 131.961C163.617 137.273 217.204 144.709 245.314 131.961C264.185 123.403 289.586 123.942 309.626 126.828C324.636 128.989 340.76 125.095 347.999 111.769C356.633 95.8759 363.466 74.2663 358.099 52.2872C347.688 9.65077 301.707 6.63608 282.62 6.63608C263.533 6.63608 167.232 30.7536 119.081 6.63608Z" fill="#67FB42"/>
</svg>
